<svg width="12" height="12" viewBox="0 0 12 12" fill="none" xmlns="http://www.w3.org/2000/svg">
<g id="copyright">
<path id="Vector" d="M11 6C11 8.7614 8.7614 11 6 11C3.23857 11 1 8.7614 1 6C1 3.23857 3.23857 1 6 1C8.7614 1 11 3.23857 11 6Z" stroke="white"/>
<path id="Vector_2" d="M7.5 7C7.5 7.5523 7.0523 8 6.5 8H6C5.53405 8 5.3011 8 5.1173 7.9239C4.87229 7.8224 4.67761 7.6277 4.57612 7.3827C4.5 7.1989 4.5 6.96595 4.5 6.5V5.5C4.5 5.03405 4.5 4.80109 4.57612 4.61731C4.67761 4.37229 4.87229 4.17761 5.1173 4.07612C5.3011 4 5.53405 4 6 4H6.5C7.0523 4 7.5 4.44771 7.5 5" stroke="white" stroke-linecap="round"/>
</g>
</svg>
