<svg width="32" height="32" viewBox="0 0 32 32" fill="none" xmlns="http://www.w3.org/2000/svg">
<g id="github">
<path id="Vector" d="M12.6719 25.2145C12.6719 25.2145 10.6667 25.2145 8.66667 22.5489M18.7451 29.3333V23.5679C18.7451 23.0833 18.6008 22.6621 18.3683 22.2816C18.2088 22.0207 18.318 21.6503 18.6063 21.5684C20.9929 20.8908 22.6667 19.8013 22.6667 16.1875C22.6667 15.2479 22.3685 14.3645 21.8445 13.5957C21.5839 13.2131 21.5904 13.2485 21.6995 12.7963C21.8911 12.0009 21.9064 11.163 21.6923 10.3814C21.6219 10.1245 21.4709 9.97461 21.1977 10.0035C20.8435 10.0411 20.23 10.2088 19.32 10.7959C18.9625 11.0266 18.7837 11.1419 18.6263 11.1677C18.4688 11.1935 18.2584 11.1395 17.8373 11.0314C17.2617 10.8836 16.6685 10.8042 16 10.8042C15.3315 10.8042 14.7383 10.8836 14.1627 11.0314C13.7416 11.1395 13.5312 11.1935 13.3737 11.1677C13.2163 11.1419 13.0375 11.0266 12.68 10.7959C11.77 10.2088 11.1565 10.0411 10.8022 10.0035C10.5291 9.97461 10.3781 10.1245 10.3077 10.3814C10.0936 11.163 10.1089 12.0009 10.3006 12.7963C10.4096 13.2486 10.4162 13.2131 10.1554 13.5957C9.63141 14.3645 9.33333 15.2479 9.33333 16.1875C9.33333 19.8013 11.007 20.8908 13.3937 21.5684C13.682 21.6503 13.7912 22.0207 13.6317 22.2816C13.3992 22.6621 13.2549 23.0833 13.2549 23.5679V29.3333" stroke="#996A0D" stroke-width="1.5"/>
<path id="Vector_2" d="M16 29.3333C23.3638 29.3333 29.3333 23.3638 29.3333 16C29.3333 8.6362 23.3638 2.66667 16 2.66667C8.6362 2.66667 2.66667 8.6362 2.66667 16C2.66667 23.3638 8.6362 29.3333 16 29.3333Z" stroke="#996A0D" stroke-width="1.5" stroke-linejoin="round"/>
</g>
</svg>
