<svg width="32" height="32" viewBox="0 0 32 32" fill="none" xmlns="http://www.w3.org/2000/svg">
<g id="instagram">
<path id="Vector" d="M3.33334 16C3.33334 10.0289 3.33334 7.04332 5.18832 5.18832C7.04332 3.33333 10.0289 3.33333 16 3.33333C21.9711 3.33333 24.9567 3.33333 26.8117 5.18832C28.6667 7.04332 28.6667 10.0289 28.6667 16C28.6667 21.9711 28.6667 24.9567 26.8117 26.8117C24.9567 28.6667 21.9711 28.6667 16 28.6667C10.0289 28.6667 7.04332 28.6667 5.18832 26.8117C3.33334 24.9567 3.33334 21.9711 3.33334 16Z" stroke="#996A0D" stroke-width="1.5" stroke-linejoin="round"/>
<path id="Vector_2" d="M22 16C22 19.3137 19.3137 22 16 22C12.6863 22 10 19.3137 10 16C10 12.6863 12.6863 10 16 10C19.3137 10 22 12.6863 22 16Z" stroke="#996A0D" stroke-width="1.5"/>
<path id="Vector_3" d="M23.3437 8.66667H23.3317" stroke="#996A0D" stroke-width="2" stroke-linecap="round" stroke-linejoin="round"/>
</g>
</svg>
