<svg width="32" height="32" viewBox="0 0 32 32" fill="none" xmlns="http://www.w3.org/2000/svg">
<g id="linkedin-01">
<path id="Vector" d="M9.33333 13.3333V22.6667" stroke="#996A0D" stroke-width="1.5" stroke-linecap="round" stroke-linejoin="round"/>
<path id="Vector_2" d="M14.6667 17.3333V22.6667M14.6667 17.3333C14.6667 15.1241 16.4575 13.3333 18.6667 13.3333C20.8759 13.3333 22.6667 15.1241 22.6667 17.3333V22.6667M14.6667 17.3333V13.3333" stroke="#996A0D" stroke-width="1.5" stroke-linecap="round" stroke-linejoin="round"/>
<path id="Vector_3" d="M9.34401 9.33333H9.33203" stroke="#996A0D" stroke-width="2" stroke-linecap="round" stroke-linejoin="round"/>
<path id="Vector_4" d="M3.33333 16C3.33333 10.0289 3.33333 7.04332 5.18832 5.18832C7.04332 3.33333 10.0289 3.33333 16 3.33333C21.9711 3.33333 24.9567 3.33333 26.8117 5.18832C28.6667 7.04332 28.6667 10.0289 28.6667 16C28.6667 21.9711 28.6667 24.9567 26.8117 26.8117C24.9567 28.6667 21.9711 28.6667 16 28.6667C10.0289 28.6667 7.04332 28.6667 5.18832 26.8117C3.33333 24.9567 3.33333 21.9711 3.33333 16Z" stroke="#996A0D" stroke-width="1.5" stroke-linejoin="round"/>
</g>
</svg>
